<?xml version="1.0" encoding="UTF-8" standalone="no"?>
<svg width="162px" height="71px" viewBox="0 0 162 71" version="1.1" xmlns="http://www.w3.org/2000/svg" xmlns:xlink="http://www.w3.org/1999/xlink">
    <!-- Generator: sketchtool 39.1 (31720) - http://www.bohemiancoding.com/sketch -->
    <title>E44C9528-C43F-4840-A0FD-D613ACE0AD5A</title>
    <desc>Created with sketchtool.</desc>
    <defs></defs>
    <g id="Page-1" stroke="none" stroke-width="1" fill="none" fill-rule="evenodd">
        <g id="promo_96" transform="translate(-390.000000, -29.000000)">
            <g id="SECTION#1">
                <g id="e96_logo" transform="translate(390.000000, 29.000000)">
                    <path d="M30,43 L18.6513726,43 L7.30914831,43 C6.62402058,43 5.1499427,42.834 4.70857199,42.5 C4.28274956,42.1665 4.02494893,41.393 3.99435392,40.9385 C3.78119192,38.635 3.87347944,36.7281 3.73655421,34.4241 C3.61567882,32.1191 3.62263524,30.3040003 3.5769935,28.0000003 L16.531224,28.0000003 L29,28.0000003 L29.0000009,25 L16.5312249,25 L3.560443,25 C3.59103802,22.9235 3.55499034,20.6611 3.64577227,18.5691 C3.75260405,16.4931 3.91962274,14.4006 4.10319283,12.3086 C4.13328629,11.9141 4.26870685,10.8706 4.93828629,10.3696 C5.37915545,10.0366 6.41386794,10 7.03680251,10 L18.5154505,10 L30,10 L30,7 L18.4552636,7 L6.91542557,7 C5.40974956,7 3.93567259,7.2466 2.62710872,8.5811 C2.29256978,8.9146 1.24431433,10.0206 1.01610561,12.3086 C0.544641433,17.0391 0.270289408,21.7686 0.300884424,26.4966 C0.330977882,31.2261 0.665516822,35.9536 1.09083769,40.6851 C1.22776293,42.1391 1.48756978,43.7466 2.79462897,44.9121 C4.17792492,46.1406 5.66755109,46.0801 7.00670997,46.0801 L18.6067349,46.0801 L30,46 L30,43 Z M57,26.9999988 L44.9999999,26.9999992 C43.0985949,26.9999992 40.6364485,26.9999992 38.9632522,25.3309992 C37.4585793,23.8319992 37.1117037,21.2521 37.1117037,18.6311 C37.1117037,16.4026 37.3845511,13.6136 39.1179343,11.7791 C40.7901274,9.9441 43.1727974,10 44.4653114,10 L49.9999999,10 C51.6270528,10 53.8210963,10.0506 55.4481492,11.7186 C57.1198408,13.4471 56.9999999,15.8775002 56.9999999,17 L57,26.9999988 Z M36.0914111,46.156601 L49.9999991,46.156601 C52.5077872,46.156601 56.7853019,45.7616 58.914414,41.5941 C60.0855511,39.2601 60.2515667,36.2436 60.2515667,33.4536 L60.2515667,17.5091 C60.2515667,16.2816 60.145738,12.9911 58.5798751,10.7021 C56.2832427,7.4131 52.2375016,7 49.5,7 L45.1971371,7 C42.6276573,7 39.4063299,7.3086 37.1262489,9.2631 C34.1620433,11.8251 33.9945231,16.1751 33.9945231,18.6756 C33.9945231,21.5256 34.2227318,24.8606 36.3357941,27.2546 C37.3399125,28.4221 39.3616913,29.9826 42.8284576,30 L56.9999991,30 L56.9999991,34.5 C56.9999991,36.287 56.8759595,39.2715 55.1420748,41.105 C53.4703832,42.8335 50.8392118,43 49,43 L36.0914112,43 C36.0914112,43 35.9773838,46.156601 36.0914111,46.156601 Z M90.1601555,7 L76.2515676,7 C73.7437795,7 69.4662648,7.39500096 67.3371526,11.562501 C66.1660156,13.896501 66,16.913001 66,19.703001 L66,35.647501 C66,36.875001 66.1058287,40.165501 67.6716916,42.454501 C69.968324,45.743501 74.0140651,46.156601 76.7515667,46.156601 L81.0544296,46.156601 C83.6239093,46.156601 86.8452368,45.848001 89.1253178,43.893501 C92.0895234,41.331501 92.2570436,36.981501 92.2570436,34.481001 C92.2570436,31.631001 92.0288349,28.296001 89.9157726,25.902001 C88.9116542,24.734501 86.9667661,23.0174 83,23 L68.9999998,23 L68.9999998,18 C68.9999998,16.713 69.3756072,13.885101 71.1094919,12.051601 C72.7811835,10.323101 75.4123548,10.156601 77.2515667,10.156601 L90.1601554,10.156601 C90.1601554,10.156601 90.2741828,7 90.1601555,7 Z M69,25.9998161 L81,25.9998157 C83.0149932,25.9998157 85.4771396,25.9998157 87.1503359,27.6688157 C88.6550087,29.1678157 89.0018843,31.7477149 89.0018843,34.3687149 C89.0018843,36.5972149 88.729037,39.3862149 86.9956538,41.2207149 C85.3234606,43.0557149 82.9407907,42.9998149 81,42.9998149 L76,42.9998149 C74.4865352,42.9998149 72.2924918,42.9492149 70.6654388,41.2812149 C68.9937472,39.5527149 69.1135882,37.1223147 69,35.9998149 L69,25.9998161 Z" id="Fill-33" fill="#F5F5F5"></path>
                    <path d="M154,38 L154,38 C153.6445,39.6033818 153.340152,41.6324352 152,43 C150.290133,44 148.124483,44 146,44 L141,44 L136,44 C134.109384,44 132.462886,43.9088236 131,44 C129.535612,43.2061102 128.268921,42.5804686 127,41 C124.137334,38.8235967 124,35.2052525 124,33 L124,20 L124,7 L128,7 C127.661231,11.1376972 127.67431,15.2461777 128,19 C127.704494,23.4923554 127.704494,27.6008359 128,32 C127.67431,35.5563573 128.391666,37.2806497 129,38 C130.754513,40.4279996 133.469498,40.7171448 136,41 L142,41 L147,41 C147.71399,40.7171448 148.704002,40.5201835 149,40 C150.015465,39.2512696 150.062249,38.1979551 150,38 C150.229766,32.5475351 150.336917,27.4325877 150,22 C150.244858,17.2162939 150.045648,12.1154511 150,7 L153,7 C153.719958,12.1774108 153.951363,17.3679187 154,23 C154.026319,27.7529646 153.904579,32.9303754 154,38 L154,38 Z M122,10 L120,10 C117.718568,10.2829893 114.623459,10.4960789 113,13 C111.036038,14.756862 110.682936,17.5371011 111,21 L111,44 L107,44 L107,44 L107,20 C107,15.9331364 107.494344,12.6662673 110,10 C111.850969,8.54301002 114.469516,7 119,7 L122,7 L122,10 Z M154,-6.39488462e-14 L103,-6.39488462e-14 C100.32582,-6.39488462e-14 98,2.35855637 98,5 L98,25 L98,45 C98,47.6409454 100.342354,50 103,50 L154,50 C157.188658,50 159.5,45.5 160,43.5 C162.966837,31.6326518 161,7 160,5 C159.000056,3.0001125 157.172123,-6.39488462e-14 154,-6.39488462e-14 Z" id="Fill-34" fill="#FFFFFF"></path>
                    <polygon id="Fill-35" fill="#F5F5F5" points="31.8673168 63.6557 31.9089461 62.7982 31.8673168 62.7982 31.2985505 63.6832 28.1778589 67.7482 27.5398776 67.7482 27.5398776 60.8347 28.6493231 60.8347 28.6493231 65.0522 28.6081953 65.8682 28.6633667 65.8682 29.2040458 65.0107 32.3252389 60.8347 32.9767623 60.8347 32.9767623 67.7482 31.8673168 67.7482"></polygon>
                    <polygon id="Fill-36" fill="#F5F5F5" points="39.3557729 64.69255 36.2210377 64.69255 36.2210377 67.74855 35.1115922 67.74855 35.1115922 60.83505 36.2210377 60.83505 36.2210377 63.72455 39.3557729 63.72455 39.3557729 60.83505 40.4652184 60.83505 40.4652184 67.74855 39.3557729 67.74855"></polygon>
                    <polygon id="Fill-37" fill="#F5F5F5" points="47.0245891 61.80275 44.8468259 61.80275 44.8468259 67.74825 43.7373804 67.74825 43.7373804 61.80275 41.5596171 61.80275 41.5596171 60.83475 47.0245891 60.83475"></polygon>
                    <path d="M48.6742121,63.5312 L52.1138944,63.5312 C52.1138944,62.1347 51.545128,61.6367 50.574614,61.6367 C49.4927542,61.6367 48.7991,62.1622 48.6742121,63.5312 L48.6742121,63.5312 Z M52.9600221,67.1952 C52.4052994,67.6377 51.5175424,67.9142 50.574614,67.9142 C48.4525237,67.9142 47.5090938,66.4902 47.5090938,64.2917 C47.5090938,61.9547 48.6185393,60.6692 50.5605704,60.6692 C51.8224894,60.6692 53.1962558,61.0837 53.1962558,63.3927 C53.1962558,63.6972 53.1681685,64.0287 53.1124956,64.4022 L48.6601685,64.4022 C48.6742121,66.0062 49.2570221,66.9462 50.8936047,66.9462 C51.5175424,66.9462 52.2247386,66.6837 52.5442308,66.3932 L52.9600221,67.1952 Z" id="Fill-38" fill="#F5F5F5"></path>
                    <path d="M56.0520246,63.11635 L56.0520246,66.55935 C56.3850589,66.80835 56.7732645,66.94635 57.4669187,66.94635 C58.7288377,66.94635 59.5473798,65.96485 59.5473798,64.13985 C59.5473798,62.61885 59.061872,61.63685 57.7442801,61.63685 C56.8008502,61.63685 56.2737131,62.12085 56.0520246,63.11635 L56.0520246,63.11635 Z M54.9425791,60.83485 L55.7054483,60.83485 L55.9130931,61.66435 L55.968766,61.66435 C56.3850589,61.01485 57.0922551,60.66885 57.9519249,60.66885 C59.7971555,60.66885 60.6984545,61.69235 60.6984545,64.15335 C60.6984545,66.47635 59.4500776,67.91435 57.5080464,67.91435 C56.8284358,67.91435 56.5099467,67.83135 56.0520246,67.63785 L56.0520246,70.51385 L54.9425791,70.51385 L54.9425791,60.83485 Z" id="Fill-39" fill="#F5F5F5"></path>
                    <polygon id="Fill-40" fill="#F5F5F5" points="66.6890087 64.69255 63.5542735 64.69255 63.5542735 67.74855 62.444828 67.74855 62.444828 60.83505 63.5542735 60.83505 63.5542735 63.72455 66.6890087 63.72455 66.6890087 60.83505 67.7984542 60.83505 67.7984542 67.74855 66.6890087 67.74855"></polygon>
                    <path d="M70.7098458,63.5312 L74.149528,63.5312 C74.149528,62.1347 73.5807617,61.6367 72.6102477,61.6367 C71.5283879,61.6367 70.8347336,62.1622 70.7098458,63.5312 L70.7098458,63.5312 Z M74.9956558,67.1952 C74.440933,67.6377 73.553176,67.9142 72.6102477,67.9142 C70.4881573,67.9142 69.5447274,66.4902 69.5447274,64.2917 C69.5447274,61.9547 70.6541729,60.6692 72.596204,60.6692 C73.8581231,60.6692 75.2318894,61.0837 75.2318894,63.3927 C75.2318894,63.6972 75.2038022,64.0287 75.1481293,64.4022 L70.6958022,64.4022 C70.7098458,66.0062 71.2926558,66.9462 72.9292383,66.9462 C73.553176,66.9462 74.2603723,66.6837 74.5798645,66.3932 L74.9956558,67.1952 Z" id="Fill-41" fill="#F5F5F5"></path>
                    <polygon id="Fill-42" fill="#F5F5F5" points="81.4026533 61.80275 79.22489 61.80275 79.22489 67.74825 78.114943 67.74825 78.114943 61.80275 75.9376813 61.80275 75.9376813 60.83475 81.4026533 60.83475"></polygon>
                    <polygon id="Fill-43" fill="#F5F5F5" points="81.4991028 64.2775 84.8555265 64.2775 84.8555265 63.2545 81.4991028 63.2545"></polygon>
                    <polygon id="Fill-44" fill="#F5F5F5" points="92.4689707 63.6417 92.5522293 62.3282 92.4830143 62.3282 91.9834629 63.3927 90.3057526 66.1032 89.9165439 66.1032 88.1691171 63.3927 87.711195 62.3282 87.6560237 62.3282 87.7668679 63.6277 87.7668679 67.7487 86.740681 67.7487 86.740681 60.8347 87.8365844 60.8347 89.778114 63.9322 90.1803632 64.7342 90.2079489 64.7342 90.6247433 63.9047 92.441385 60.8347 93.5508305 60.8347 93.5508305 67.7487 92.4689707 67.7487"></polygon>
                    <path d="M99.3471315,65.79875 L99.3471315,64.65125 C99.0833121,64.63725 98.8194928,64.62375 98.5566766,64.62375 C97.4056019,64.62375 96.3096984,64.85875 96.3096984,65.78475 C96.3096984,66.43475 96.8227919,66.89125 97.5440318,66.89125 C98.5978044,66.89125 99.1530287,66.28275 99.3471315,65.79875 L99.3471315,65.79875 Z M95.5749165,61.34625 C96.2685707,60.93175 97.2526268,60.72425 98.2652717,60.72425 C100.193761,60.72425 100.470621,61.87175 100.470621,62.85375 C100.470621,63.95975 100.387864,65.02475 100.387864,65.96475 C100.387864,66.64225 100.428991,67.26425 100.581465,67.77625 L99.7634243,67.77625 L99.4720193,66.80825 L99.4028044,66.80825 C99.0697701,67.30575 98.4182467,67.85875 97.2390847,67.85875 C96.0599227,67.85875 95.1581221,67.09875 95.1581221,65.89575 C95.1581221,64.27775 96.5589726,63.78025 98.5847639,63.78025 C98.834038,63.78025 99.0833121,63.78025 99.3471315,63.80775 C99.3747171,63.53125 99.3892623,63.28225 99.3892623,63.06125 C99.3892623,62.03775 99.0557265,61.69225 97.9738667,61.69225 C97.363471,61.69225 96.4345863,61.87175 95.9214928,62.16225 L95.5749165,61.34625 Z" id="Fill-45" fill="#F5F5F5"></path>
                    <polygon id="Fill-46" fill="#F5F5F5" points="106.6141 61.80275 103.672966 61.80275 103.672966 67.74825 102.56352 67.74825 102.56352 60.83475 106.6141 60.83475"></polygon>
                    <path d="M111.342283,65.79875 L111.342283,64.65125 C111.078464,64.63725 110.814645,64.62375 110.551829,64.62375 C109.400754,64.62375 108.30485,64.85875 108.30485,65.78475 C108.30485,66.43475 108.817944,66.89125 109.539184,66.89125 C110.592956,66.89125 111.148181,66.28275 111.342283,65.79875 L111.342283,65.79875 Z M107.569567,61.34625 C108.263723,60.93175 109.247779,60.72425 110.260424,60.72425 C112.188913,60.72425 112.465773,61.87175 112.465773,62.85375 C112.465773,63.95975 112.383016,65.02475 112.383016,65.96475 C112.383016,66.64225 112.424143,67.26425 112.576617,67.77625 L111.758576,67.77625 L111.467171,66.80825 L111.397956,66.80825 C111.064922,67.30575 110.413399,67.85875 109.234237,67.85875 C108.055075,67.85875 107.153274,67.09875 107.153274,65.89575 C107.153274,64.27775 108.554125,63.78025 110.579916,63.78025 C110.82919,63.78025 111.078464,63.78025 111.342283,63.80775 C111.369869,63.53125 111.384414,63.28225 111.384414,63.06125 C111.384414,62.03775 111.050879,61.69225 109.969019,61.69225 C109.358623,61.69225 108.429738,61.87175 107.916645,62.16225 L107.569567,61.34625 Z" id="Fill-47" fill="#F5F5F5"></path>
                    <path d="M115.224791,64.66495 L115.224791,63.76645 L116.195807,63.76645 C116.861374,63.76645 117.554526,63.28245 117.554526,62.68745 C117.554526,61.96895 117.041433,61.70595 116.056875,61.70595 C115.335635,61.70595 114.697152,61.98245 114.36462,62.18995 L114.045629,61.33245 C114.59985,61.01495 115.335635,60.73795 116.361822,60.73795 C117.873517,60.73795 118.664473,61.31895 118.664473,62.43895 C118.664473,63.07495 118.220595,63.79395 117.457726,64.04245 L117.457726,64.09795 C118.539585,64.30545 118.927791,64.88595 118.927791,65.81245 C118.927791,66.97395 117.970819,67.87295 116.029289,67.87295 C115.086361,67.87295 114.516592,67.67945 114.018043,67.44445 L114.337034,66.53145 C114.766869,66.76695 115.391308,66.90495 116.084962,66.90495 C117.207448,66.90495 117.818345,66.51795 117.818345,65.72945 C117.818345,65.06595 117.305252,64.66495 116.029289,64.66495 L115.224791,64.66495 Z" id="Fill-48" fill="#F5F5F5"></path>
                    <polygon id="Fill-49" fill="#F5F5F5" points="125.002005 63.6557 125.043133 62.7982 125.002005 62.7982 124.433239 63.6832 121.312547 67.7482 120.674566 67.7482 120.674566 60.8347 121.784011 60.8347 121.784011 65.0522 121.742883 65.8682 121.798055 65.8682 122.338734 65.0107 125.459927 60.8347 126.11145 60.8347 126.11145 67.7482 125.002005 67.7482"></polygon>
                    <polygon id="Fill-50" fill="#F5F5F5" points="132.490662 64.69255 129.355425 64.69255 129.355425 67.74855 128.245979 67.74855 128.245979 60.83505 129.355425 60.83505 129.355425 63.72455 132.490662 63.72455 132.490662 60.83505 133.600107 60.83505 133.600107 67.74855 132.490662 67.74855"></polygon>
                </g>
            </g>
        </g>
    </g>
</svg>