<?xml version="1.0" encoding="UTF-8" standalone="no"?>
<svg width="103px" height="102px" viewBox="0 0 103 102" version="1.1" xmlns="http://www.w3.org/2000/svg" xmlns:xlink="http://www.w3.org/1999/xlink">
    <!-- Generator: sketchtool 39.1 (31720) - http://www.bohemiancoding.com/sketch -->
    <title>C6B37127-FEE1-48FC-ACFD-1A5E20A3E043</title>
    <desc>Created with sketchtool.</desc>
    <defs></defs>
    <g id="Page-1" stroke="none" stroke-width="1" fill="none" fill-rule="evenodd">
        <g id="promo_96" transform="translate(-589.000000, -768.000000)" fill="#09B9E2">
            <g id="SECTION#2" transform="translate(0.000000, 611.000000)">
                <g id="logo_open_cirlce" transform="translate(589.000000, 157.000000)">
                    <path d="M51.6144578,0 C23.4770658,0 0.534269152,22.9067797 0.534269152,51 C0.534269152,79.0932203 23.4770658,102 51.6144578,102 C79.7518499,102 102.694647,79.0932203 102.694647,51 C102.694647,22.9067797 79.7518499,0 51.6144578,0 L51.6144578,0 L51.6144578,0 Z M40.792384,76.0677966 C41.2252669,76.2838983 42.5239158,77.1483051 42.9567987,78.8771186 C43.1732402,80.1737288 42.9567987,81.2542373 42.3074743,82.3347458 C41.4417084,83.6313559 40.1430595,84.279661 38.6279692,84.279661 C37.7622033,84.279661 36.8964374,84.0635593 36.2471129,83.6313559 L33.8662567,82.5508475 C23.4770658,76.9322034 16.9838214,65.9110169 16.9838214,53.3771186 L16.9838214,48.190678 C16.9838214,35.8728814 23.4770658,24.6355932 33.8662567,19.0169492 L36.2471129,17.9364407 C37.1128788,17.5042373 37.9786448,17.2881356 38.6279692,17.2881356 C40.359501,17.2881356 41.6581499,17.9364407 42.3074743,19.2330508 C42.9567987,20.3135593 43.1732402,21.3940678 42.9567987,22.690678 C42.5239158,24.8516949 40.792384,25.7161017 40.792384,25.7161017 C34.7320226,28.5254237 30.836076,34.7923729 30.836076,41.7076271 L30.836076,59.8601695 C30.836076,66.9915254 34.7320226,73.2584746 40.792384,76.0677966 L40.792384,76.0677966 L40.792384,76.0677966 Z M86.2450942,53.5932203 C86.2450942,65.9110169 79.7518499,77.1483051 69.362659,82.7669492 L66.9818027,83.8474576 C66.1160368,84.279661 65.2502709,84.4957627 64.384505,84.4957627 C62.6529732,84.4957627 61.5707658,83.8474576 60.7049999,82.5508475 C60.0556755,81.470339 59.839234,80.3898305 60.0556755,79.0932203 C60.4885584,77.3644068 61.7872073,76.5 62.2200902,76.2838983 C68.2804516,73.4745763 72.3928397,67.2076271 72.3928397,60.2923729 L72.3928397,42.1398305 C72.3928397,35.2245763 68.4968931,28.9576271 62.4365317,26.1483051 C62.4365317,26.1483051 60.7049999,25.2838983 60.2721169,23.1228814 C60.0556755,21.8262712 60.2721169,20.7457627 60.9214414,19.6652542 C61.7872073,18.3686441 63.0858561,17.720339 64.6009465,17.720339 C65.4667124,17.720339 66.3324783,17.9364407 66.9818027,18.3686441 C66.9818027,18.3686441 69.1462175,19.4491525 69.362659,19.4491525 C79.7518499,25.0677966 86.2450942,36.0889831 86.2450942,48.6228814 L86.2450942,53.5932203 L86.2450942,53.5932203 Z" id="Shape"></path>
                </g>
            </g>
        </g>
    </g>
</svg>