<svg width="178" height="252" viewBox="0 0 178 252" xmlns="http://www.w3.org/2000/svg" xmlns:xlink="http://www.w3.org/1999/xlink"><title>logo</title><defs><path id="a" d="M64.882 75.856V.014H0v75.842z"/></defs><g fill="none" fill-rule="evenodd"><path fill="#006CE1" d="M12 0h154v215H12z"/><path fill="#008AFF" d="M0 10h178v215H0z"/><path d="M11.82 133.248c0 1.269 5.076 1.316 6.392 1.316.94 0 2.068-.517 2.068-1.316V120.37a16.546 16.546 0 0 0 1.598-.188l10.434 13.066c1.081 1.316 4.512 1.316 6.486 1.316.846 0 2.444-.047 2.444-1.269 0-.47-.282-1.081-.94-1.88L28.27 117.033c3.196-3.854 1.41-9.682 9.776-9.682h1.222c1.41-.282 1.457-5.546.893-6.674-.235-.376-.517-.611-.893-.611h-1.222c-16.121 0-11.562 10.669-17.766 12.784v-11.844c0-.47-.517-1.316-2.068-1.316-1.316 0-6.392.047-6.392 1.316v32.242zm62.463-32.336c0-.799-1.081-1.222-2.021-1.222-1.41 0-5.546.141-6.392 1.222l-13.019 18.706v-18.424c0-.752-1.081-1.504-2.021-1.504-1.269 0-6.345.282-6.345 1.504v32.242c0 1.128 4.841 1.128 6.204 1.128.893 0 1.645-.799 2.162-1.504l13.019-18.753v19.129c0 1.128 5.358 1.128 6.721 1.128.893 0 1.692-.611 1.692-1.504v-32.148zm28.811 6.862c1.222 0 1.175-4.465 1.175-5.687 0-.893-.423-1.927-1.175-1.927H82.743c-.799 0-1.457.752-1.457 1.222v31.396c0 .517 1.363 1.222 2.444 1.222h13.16c9.306 0 12.079-3.431 12.079-10.058v-1.128c0-5.123-1.269-9.306-11.609-9.306h-7.614v-5.734h13.348zm-5.734 12.361c2.82 0 3.149.846 3.149 2.679v1.081c0 2.256-.705 2.538-4.935 2.538h-5.828v-6.298h7.614zm16.685 12.643c0 .517 1.457 1.222 2.538 1.222h19.881c1.222 0 1.269-4.371 1.269-5.64 0-.893-.517-1.927-1.316-1.927h-13.912v-5.828h11.327c1.222 0 1.269-4.371 1.269-5.64 0-.893-.564-1.927-1.316-1.927h-11.28v-5.311h13.959c1.222 0 1.269-4.371 1.269-5.64 0-.893-.517-1.927-1.316-1.927h-20.351c-.94 0-2.021.423-2.021 1.222v31.396zm28.811.423c0 1.269 5.076 1.363 6.392 1.363.94 0 2.021-.423 2.021-1.222V123.19h4.7c9.259 0 13.301-1.692 13.301-10.669v-1.645c0-8.883-4.418-10.716-13.301-10.716h-11.092c-.94 0-2.021.47-2.021 1.222v31.819zm13.113-25.474c3.995 0 4.559.564 4.559 3.149v1.645c0 2.632-.564 3.102-4.559 3.102h-4.7v-7.896h4.7zM12.603 145.13c-.513 0-1.463.038-1.463.494v13.072c0 .513 2.071.532 2.603.532.38 0 .817-.209.817-.532v-10.507h5.624v10.507c0 .513 2.071.532 2.603.532.38 0 .817-.209.817-.532V147.41c0-.513 0-2.28-.494-2.28H12.603zm19.38 14.079c4.047 0 6.023-1.33 6.023-5.339v-3.401c0-4.009-1.976-5.339-6.023-5.339h-.152c-4.047 0-6.004 1.33-6.004 5.339v3.401c0 4.009 1.957 5.339 6.004 5.339h.152zm-2.641-8.17c0-1.919.171-2.831 2.489-2.831h.152c2.318 0 2.508.912 2.508 2.831v2.261c0 1.919-.19 2.831-2.508 2.831h-.152c-2.318 0-2.489-.912-2.489-2.831v-2.261zm22.211-5.282c0-.323-.437-.627-.817-.627-.513 0-2.603.114-2.603.627v4.617h-4.655v-4.617c0-.323-.437-.627-.817-.627-.532 0-2.603.114-2.603.627v12.863c0 .494 2.071.608 2.603.608.38 0 .817-.304.817-.608v-5.149h4.655v5.149c0 .494 2.09.608 2.603.608.38 0 .817-.304.817-.608v-12.863zm2.28 12.749c0 .209.589.494 1.026.494h8.037c.494 0 .513-1.767.513-2.28 0-.361-.209-.779-.532-.779h-5.624v-2.356h4.579c.494 0 .513-1.767.513-2.28 0-.361-.228-.779-.532-.779h-4.56v-2.147h5.643c.494 0 .513-1.767.513-2.28 0-.361-.209-.779-.532-.779H54.65c-.38 0-.817.171-.817.494v12.692zm16.815-13.376c-.494 0-.494 1.786-.494 2.28v.893c0 3.002-1.083 7.6-3.401 7.6h-1.007c-.513 0-.57.057-.57.456v5.586c0 .342.513.551.836.551.494 0 2.584 0 2.584-.437V159h9.462v3.04c0 .456 2.033.456 2.508.456.532 0 .931-.19.931-.475v-5.529c0-.551-.057-.589-.513-.589h-1.786v-10.279c0-.456-.95-.494-1.463-.494h-7.087zm5.13 3.059v7.714h-4.807c1.159-.589 2.603-2.356 2.603-7.03v-.684h2.204zm7.163 10.317c0 .209.589.494 1.026.494h8.037c.494 0 .513-1.767.513-2.28 0-.361-.209-.779-.532-.779h-5.624v-2.356h4.579c.494 0 .513-1.767.513-2.28 0-.361-.228-.779-.532-.779h-4.56v-2.147h5.643c.494 0 .513-1.767.513-2.28 0-.361-.209-.779-.532-.779h-8.227c-.38 0-.817.171-.817.494v12.692zm25.973.19v-12.863c0-.19-.266-.494-.589-.494h-9.348c-.304 0-.437.418-.494.779l-1.159 8.55c-.19 1.368-.323 1.463-.608 1.463-.209 0-.532-.038-1.007-.209-.456-.133-1.197 1.52-1.387 1.957-.171.399-.19.722.133.874a5.025 5.025 0 0 0 2.242.475c2.223 0 3.61-1.254 3.99-4.123l.893-6.688h3.914v10.279c0 .513 2.052.532 2.584.532.38 0 .836-.209.836-.532zm5.7-13.034c0-.323-.456-.532-.836-.532-.532 0-2.584.019-2.584.532v12.844c0 .209.551.494.988.494h5.32c3.762 0 4.883-1.387 4.883-4.066v-.456c0-2.071-.513-3.762-4.693-3.762h-3.078v-5.054zm3.078 7.733c1.14 0 1.273.342 1.273 1.083v.437c0 .912-.285 1.026-1.995 1.026h-2.356v-2.546h3.078zm17.537-7.638c0-.323-.437-.627-.817-.627-.513 0-2.603.114-2.603.627v4.617h-4.655v-4.617c0-.323-.437-.627-.817-.627-.532 0-2.603.114-2.603.627v12.863c0 .494 2.071.608 2.603.608.38 0 .817-.304.817-.608v-5.149h4.655v5.149c0 .494 2.09.608 2.603.608.38 0 .817-.304.817-.608v-12.863zm14.345-.133c0-.323-.437-.494-.817-.494-.57 0-2.242.057-2.584.494l-5.263 7.562v-7.448c0-.304-.437-.608-.817-.608-.513 0-2.565.114-2.565.608v13.034c0 .456 1.957.456 2.508.456.361 0 .665-.323.874-.608l5.263-7.581v7.733c0 .456 2.166.456 2.717.456.361 0 .684-.247.684-.608v-12.996zm2.831 13.072c0 .513 2.052.532 2.584.532.38 0 .836-.209.836-.532v-5.206c.228-.019.437-.038.646-.076l4.218 5.282c.437.532 1.824.532 2.622.532.342 0 .988-.019.988-.513 0-.19-.114-.437-.38-.76l-4.864-5.814c1.292-1.558.57-3.914 3.952-3.914h.494c.57-.114.589-2.242.361-2.698-.095-.152-.209-.247-.361-.247h-.494c-6.517 0-4.674 4.313-7.182 5.168v-4.788c0-.19-.209-.532-.836-.532-.532 0-2.584.019-2.584.532v13.034z" fill="#FFF"/><g transform="translate(54 24)"><circle fill="#FFF" cx="64" cy="6" r="6"/><circle fill="#FFF" cx="6" cy="6" r="6"/><path d="M6 22c0 15.74 12.76 28.5 28.5 28.5S63 37.74 63 22" stroke="#FFF" stroke-width="9" stroke-linecap="round"/></g><g transform="translate(101 176.155)"><mask id="b" fill="#fff"><use xlink:href="#a"/></mask><path d="M26.828 37.835V36.76c0-9.319.002-18.638-.007-27.957 0-.5-.034-1.02-.167-1.499-.307-1.111-1.383-1.877-2.523-1.877-1.14 0-2.217.765-2.524 1.876-.133.48-.167.998-.167 1.499-.009 14.387-.007 28.774-.007 43.16v1.127c-3.606-3.619-7.037-7.063-10.47-10.505-.496-.497-.984-1.006-1.514-1.464-.632-.547-1.367-.756-2.188-.455-2.095.768-2.606 2.888-1.084 4.49.194.203.397.398.597.596 6.724 6.672 13.459 13.332 20.163 20.024a14.019 14.019 0 0 0 4.815 3.165c5.04 1.981 10.26 1.86 15.387.687 7.042-1.61 12.076-8.072 12.185-15.324.102-6.756.04-13.513.048-20.27 0-.62.015-1.24-.028-1.858-.09-1.297-1.172-2.328-2.494-2.416-1.22-.08-2.502.86-2.726 2.064-.092.492-.062 1.01-.065 1.515-.007 1.484-.002 2.967-.002 4.463h-5.675v-.967c0-3.181.016-6.363-.006-9.544-.014-2.11-1.76-3.427-3.609-2.765-1.11.397-1.771 1.408-1.776 2.79-.01 3.209-.003 6.418-.004 9.628v.86h-5.382v-.795c0-3.237.008-6.475-.004-9.713-.005-1.374-.679-2.386-1.794-2.776-1.823-.637-3.57.652-3.588 2.706-.03 3.237-.009 6.475-.009 9.713v.897h-5.382zM22.952.015h2.357c.184.06.364.132.55.181 3.956 1.053 6.347 4.159 6.351 8.254V19.106c1.473 0 2.927-.218 4.28.06 1.351.28 2.602 1.055 4.034 1.672 2.094-1.716 4.658-2.42 7.509-1.53 2.851.89 4.609 2.93 5.514 5.748.2-.062.31-.085.41-.13 3.751-1.681 8.353.382 10.019 4.061.422.931.61 1.969.906 2.958v22.132c-.051.244-.138.488-.147.734-.114 3.171-.936 6.164-2.41 8.95-2.957 5.591-7.453 9.399-13.552 11.064-5.11 1.395-10.341 1.25-15.505.304-3.456-.635-6.669-2.087-9.216-4.58C16.9 63.555 9.822 56.485 2.739 49.42 1.15 47.834.15 45.952.013 43.618c-.309-5.292 4.935-9.535 10.017-8.08 1.855.531 3.27 1.68 4.59 3 .438.439.857.897 1.43 1.499v-1.272c0-10.218-.007-20.435.007-30.653.003-2.475 1.021-4.499 2.855-6.142C20.078.924 21.508.463 22.952.014z" fill="#EF3981" mask="url(#b)"/></g><path d="M127.928 213.974v-1.075c0-9.32.003-18.638-.007-27.957 0-.501-.034-1.02-.166-1.5-.307-1.11-1.383-1.876-2.524-1.876-1.14 0-2.216.765-2.524 1.876-.132.479-.166.998-.167 1.499-.008 14.387-.007 28.773-.007 43.16v1.127c-3.606-3.62-7.036-7.063-10.47-10.505-.496-.497-.983-1.006-1.514-1.465-.632-.546-1.367-.755-2.187-.455-2.096.769-2.607 2.889-1.084 4.49.194.204.397.399.596.597 6.724 6.671 13.46 13.332 20.164 20.024a14.019 14.019 0 0 0 4.815 3.164c5.04 1.982 10.259 1.86 15.387.688 7.042-1.61 12.075-8.072 12.185-15.324.102-6.756.04-13.514.047-20.27 0-.62.015-1.241-.028-1.858-.09-1.298-1.172-2.328-2.494-2.416-1.22-.08-2.501.86-2.726 2.063-.092.493-.062 1.01-.064 1.516-.008 1.484-.003 2.967-.003 4.463h-5.674v-.967c0-3.182.015-6.363-.006-9.544-.014-2.11-1.76-3.428-3.61-2.766-1.109.397-1.77 1.409-1.775 2.79-.011 3.21-.004 6.42-.004 9.629v.86h-5.383v-.795c0-3.238.008-6.475-.004-9.713-.005-1.375-.679-2.386-1.794-2.776-1.823-.638-3.57.651-3.588 2.705-.029 3.238-.008 6.476-.008 9.713v.898h-5.383z" stroke="#FEFEFE" stroke-width="2" fill="#FEFEFE"/></g></svg>