<?xml version="1.0" encoding="UTF-8"?>
<svg width="65px" height="76px" viewBox="0 0 65 76" version="1.1" xmlns="http://www.w3.org/2000/svg" xmlns:xlink="http://www.w3.org/1999/xlink">
    <!-- Generator: Sketch 41.2 (35397) - http://www.bohemiancoding.com/sketch -->
    <title>pointer</title>
    <desc>Created with Sketch.</desc>
    <defs></defs>
    <g id="Page-1" stroke="none" stroke-width="1" fill="none" fill-rule="evenodd">
        <g id="cybermonday_landing" transform="translate(-146.000000, -1401.000000)">
            <g id="about" transform="translate(84.000000, 1392.000000)">
                <g id="Group-7" transform="translate(62.000000, 9.000000)">
                    <path d="M26.8276988,37.8209055 L26.8276988,36.7460765 C26.8276988,27.4268932 26.8302247,18.1078788 26.8207947,8.78886447 C26.8202895,8.28794211 26.7864423,7.76894262 26.6540848,7.28998312 C26.3469346,6.17866194 25.2714035,5.41300253 24.130704,5.41266464 C22.9903413,5.41232675 21.9141366,6.17781722 21.6066496,7.2891384 C21.4741237,7.76792895 21.4399398,8.28692844 21.439603,8.7878508 C21.4313517,23.1747127 21.4328672,37.5615747 21.4328672,51.9484366 L21.4328672,53.0749629 C17.826546,49.4559889 14.3960278,46.0117041 10.9628154,42.5702915 C10.4668957,42.0730859 9.97905893,41.5640542 9.44878691,41.105537 C8.81663665,40.5586616 8.0814294,40.3500143 7.26135168,40.6505678 C5.16585945,41.4189303 4.65444753,43.539023 6.1774009,45.140454 C6.37105375,45.3440329 6.57396826,45.5386577 6.77351489,45.7366614 C13.4974786,52.4084743 20.2325563,59.0691367 26.9369864,65.7607161 C28.3368439,67.1580614 29.9431522,68.2139686 31.7522066,68.9253966 C36.7920641,70.9072922 42.011261,70.7856516 47.1391885,69.6133413 C54.1810797,68.003463 59.214875,61.5408042 59.324331,54.2888338 C59.4263776,47.5332241 59.3637351,40.7754182 59.3714812,34.018457 C59.3721548,33.3992731 59.3866366,32.7780618 59.3436962,32.161243 C59.2532688,30.8635754 58.1715071,29.8326721 56.8497843,29.7451585 C55.6297714,29.6642338 54.3481263,30.6052582 54.1236574,31.8084856 C54.0318828,32.3007917 54.0615201,32.8182707 54.0589942,33.3242614 C54.0519216,34.8075998 54.0564683,36.2911072 54.0564683,37.7872854 L48.382103,37.7872854 L48.382103,36.8199055 C48.3819346,33.6384994 48.3975952,30.4570933 48.3762092,27.2756873 C48.3618957,25.1657313 46.6161574,23.848466 44.7671936,24.5103931 C43.6578154,24.9075831 42.9956911,25.9190577 42.990976,27.3000154 C42.9801988,30.5096353 42.9874398,33.7192552 42.9872714,36.9287062 L42.9872714,37.7891438 L37.6049009,37.7891438 L37.6049009,36.9940879 C37.6047325,33.7564231 37.612647,30.5185894 37.6006911,27.2809246 C37.5958076,25.9065558 36.9218957,24.8952501 35.8066237,24.5051558 C33.9835926,23.8675568 32.2368439,25.1564393 32.218489,27.2104744 C32.1895253,30.4478014 32.2104061,33.6858041 32.2100693,36.9234689 L32.2100693,37.8209055 L26.8276988,37.8209055 Z M22.9516107,0 L25.3091237,0 C25.4925045,0.0611581435 25.6731911,0.132452996 25.859603,0.182122869 C29.8150045,1.23498903 32.2056911,4.34036979 32.2099009,8.43560017 C32.211248,9.81486835 32.2100693,11.1941365 32.2100693,12.5734047 L32.2100693,19.0916464 C33.6828413,19.0916464 35.1369216,18.8738761 36.4892921,19.1528046 C37.8411574,19.431733 39.0914812,20.2071912 40.5241755,20.8243478 C42.6174786,19.1080341 45.1817791,18.4031949 48.0328543,19.2933669 C50.8840978,20.1837078 52.6416237,22.2243963 53.5472455,25.0420635 C53.7476341,24.9793848 53.8569216,24.9569151 53.956274,24.9124825 C57.7084242,23.2308025 62.3096159,25.2939607 63.975704,28.9730792 C64.3975304,29.9043048 64.5859631,30.941797 64.8816626,31.9306329 L64.8816626,54.0624473 C64.8308076,54.3070798 64.743748,54.5506987 64.7349916,54.7970208 C64.6211574,57.9682901 63.7993957,60.9606466 62.3251082,63.7473968 C59.3676082,69.3381296 54.8723361,73.1456464 48.7729449,74.8109387 C43.6621936,76.2062567 38.4318828,76.0618086 33.2680874,75.1143642 C29.811805,74.4803131 26.5990201,73.0278916 24.0517273,70.5357818 C16.900717,63.5401011 9.82177914,56.4702535 2.73930504,49.4046295 C1.15034131,47.8195862 0.149240277,45.9378751 0.013009707,43.6033911 C-0.29582449,38.3116911 4.94745271,34.0686338 10.0302506,35.5239273 C11.8851082,36.0550908 13.2994475,37.2037489 14.6194864,38.5240552 C15.0578154,38.9626368 15.4769475,39.4206471 16.0504968,40.0227676 L16.0504968,38.7509485 C16.0506651,28.5333149 16.0425822,18.3155124 16.0567273,8.09770987 C16.0600952,5.62333924 17.0780356,3.59903848 18.9116755,1.95537114 C20.0781392,0.909600675 21.5078025,0.449056203 22.9516107,0 L22.9516107,0 Z" id="Fill-3" fill="#EF3981"></path>
                    <path d="M26.5305916,37.408241 L26.5305916,36.3334119 C26.5305916,27.0142286 26.5331175,17.6952143 26.5236875,8.37619994 C26.5231823,7.87527758 26.4893351,7.35627809 26.3569776,6.87731859 C26.0498274,5.76599741 24.9742963,5.000338 23.8335968,5.00000011 C22.6932341,4.99966222 21.6170294,5.76515269 21.3095424,6.87647387 C21.1770165,7.35526442 21.1428326,7.87426391 21.1424958,8.37518627 C21.1342445,22.7620482 21.13576,37.1489102 21.13576,51.5357721 L21.13576,52.6622983 C17.5294388,49.0433243 14.0989206,45.5990396 10.6657082,42.1576269 C10.1697885,41.6604214 9.68195172,41.1513896 9.1516797,40.6928725 C8.51952944,40.1459971 7.78432219,39.9373498 6.96424447,40.2379032 C4.86875224,41.0062658 4.35734032,43.1263584 5.88029369,44.7277895 C6.07394654,44.9313684 6.27686105,45.1259932 6.47640768,45.3239969 C13.2003714,51.9958097 19.9354491,58.6564722 26.6398792,65.3480516 C28.0397367,66.7453969 29.646045,67.8013041 31.4550994,68.5127321 C36.4949569,70.4946276 41.7141538,70.3729871 46.8420813,69.2006767 C53.8839724,67.5907984 58.9177678,61.1281397 59.0272237,53.8761692 C59.1292704,47.1205596 59.0666279,40.3627537 59.074374,33.6057925 C59.0750476,32.9866086 59.0895294,32.3653972 59.046589,31.7485785 C58.9561616,30.4509108 57.8743999,29.4200075 56.5526771,29.332494 C55.3326642,29.2515692 54.0510191,30.1925937 53.8265502,31.395821 C53.7347756,31.8881272 53.7644129,32.4056062 53.761887,32.9115969 C53.7548144,34.3949353 53.759361,35.8784426 53.759361,37.3746209 L48.0849958,37.3746209 L48.0849958,36.407241 C48.0848274,33.2258349 48.100488,30.0444288 48.079102,26.8630227 C48.0649569,24.7530668 46.3190502,23.4358015 44.4702548,24.0977286 C43.3607082,24.4949186 42.6985838,25.5063932 42.6938688,26.8873508 C42.6830916,30.0969707 42.6903326,33.3065907 42.6901642,36.5160416 L42.6901642,37.3764793 L37.3077937,37.3764793 L37.3077937,36.5814234 C37.3076253,33.3437586 37.3155398,30.1059248 37.3035838,26.86826 C37.2987004,25.4938913 36.6247885,24.4825856 35.5095165,24.0924913 C33.6864854,23.4548923 31.9397367,24.7437748 31.9213818,26.797641 C31.892418,30.0351368 31.9132989,33.2731395 31.9129621,36.5108043 L31.9129621,37.408241 L26.5305916,37.408241 Z" id="Fill-1" stroke="#FEFEFE" stroke-width="2" fill="#FEFEFE"></path>
                </g>
            </g>
        </g>
    </g>
</svg>