<?xml version="1.0" encoding="utf-8"?>
<svg version="1.1" id="Layer_1" xmlns="http://www.w3.org/2000/svg" xmlns:xlink="http://www.w3.org/1999/xlink" x="0px" y="0px"
	 width="320px" height="140px" viewBox="0 0 320 140" enable-background="new 0 0 320 140" xml:space="preserve">
<g>
	<path fill="#FFFFFF" d="M71.711,91.413L71.711,91.413h27.852c4.999,0,13.03-0.789,17.274-9.102c2.334-4.656,2.666-10.673,2.666-16.238V34.266
		c0-2.449-0.211-9.013-3.333-13.579c-4.577-6.56-13.03-7.102-18.487-7.102h-8.577c-5.121,0-11.153,0.332-15.698,4.231
		c-5.909,5.111-6.243,13.788-6.243,18.777c0,5.685,0.455,12.338,4.666,17.113c2.002,2.329,6.032,5.443,12.942,5.443h28.761v9.012
		c0,3.565-0.334,10.461-3.79,14.118c-3.332,3.449-8.576,3.781-12.243,3.781H71.771v5.321L71.711,91.413z M113.502,53.829
		L113.502,53.829H89.319c-3.79,0-8.698,0-12.033-3.33c-2.999-2.989-3.908-8.767-3.908-13.995c0-4.446,0.543-10.009,3.999-13.668
		c3.333-3.66,7.789-3.901,10.365-3.901h11.032c3.243,0,7.909,0.453,11.153,3.781c3.332,3.448,3.574,8.436,3.574,11.673V53.829z
		 M136.687,44.937L136.687,44.937V33.148c0-4.326,1.334-8.104,3.576-10.465c3.243-3.444,7.697-3.776,10.365-3.776h28.637v-5.321
		h-29.85c-3.577,0-7.789,0.332-11.82,3.445c-2.998,2.237-6.909,7.013-6.909,16.447v36.676c0,6.56,1.001,13.789,7.363,18.023
		c4.124,2.783,9.034,3.236,12.7,3.236h11.366c6.574,0,13.486-1.211,17.606-8.015c3.122-4.989,3.332-11.128,3.332-15.662
		c0-5.441-0.333-13.12-6.121-18.352c-4.667-4.234-9.698-4.447-14.275-4.447H136.687z M136.687,50.261L136.687,50.261h24.519
		c3.332,0,8.242,0.212,11.908,4.11c3.575,3.902,3.669,9.463,3.669,13.002c0,3.99-0.546,10.674-3.335,14.239
		c-3.33,4.234-8.456,4.447-11.365,4.447h-11.574c-5.791,0-9.155-1.996-10.698-3.781c-3.002-3.324-3.122-8.89-3.122-10.673V50.261z
		 M59.71,91.26c0-1.783,0-3.536,0-5.322c-7.548,0-15.094,0-22.61,0c-7.545,0-15.063,0-22.608,0c-1.365,0-4.303-0.332-5.183-0.997
		c-0.849-0.666-1.363-2.208-1.424-3.115C7.46,77.23,7.126,72.604,6.853,68.008c-0.241-4.598-0.391-9.221-0.483-13.817
		c8.605,0,17.213,0,25.821,0c8.605,0,17.214,0,25.851,0c0-1.784,0-3.536,0-5.321c-8.608,0-17.246,0-25.851,0
		c-8.608,0-17.246,0-25.853,0c0.06-4.142,0.153-8.316,0.333-12.489c0.213-4.142,0.547-8.316,0.912-12.489
		c0.06-0.786,0.331-2.868,1.664-3.867c0.88-0.665,2.942-1.118,4.184-1.118c7.636,0,15.244,0,22.88,0c7.609,0,15.245,0,22.881,0
		c0-1.784,0-3.54,0-5.321c-7.665,0-15.333,0-23.001,0c-7.669,0-15.336,0-23.002,0c-3.001,0-5.94,0.21-8.548,2.871
		c-0.667,0.666-2.757,2.871-3.212,7.435c-0.94,9.437-1.486,18.871-1.426,28.303c0.06,9.435,0.727,18.865,1.575,28.303
		c0.273,2.901,0.791,6.107,3.396,8.433c2.757,2.451,5.726,2.33,8.395,2.33c7.697,0,15.424,0,23.122,0c7.7,0,15.429,0,23.156,0H59.71
		z"/>
	<path fill="#FFFFFF" d="M317.035,10.478C316.242,4.785,312.362,0,306.684,0H204.647c-5.712,0-10.352,4.722-10.352,10.478v39.568v39.573
		c0,5.755,4.674,10.478,10.352,10.478h102.037c5.712,0,9.499-4.785,10.351-10.478C321.005,62.69,320.972,38.595,317.035,10.478z
		 M240.816,19.692h-4.423c-4.001,0-10.092,0.422-14.123,5.109c-3.027,3.749-3.723,9.254-3.723,15.209v46.44h-7.217l-0.03-0.028
		V38.346c0-7.467,0.973-13.935,6.518-19.199c3.027-2.9,8.18-5.955,17.999-5.955h4.999V19.692z M305.398,74.84l-0.026,0.032
		c-0.124,2.904-0.729,6.922-3.941,9.403c-2.849,2.207-7.153,2.207-11.184,2.207c-3.331,0-6.636,0-9.972,0c-3.331,0-6.633,0-9.969,0
		c-3.881,0-7.153-0.181-10.062-0.875c-2.909-0.697-5.425-1.936-7.788-4.085c-5.848-5.29-6.121-12.454-6.121-17.142
		c0-8.497,0-17.022,0-25.549c0-8.529,0-17.054,0-25.578c2.423,0,4.819,0,7.212,0c0.064,8.16,0.09,16.295,0.123,24.458
		c0.027,8.165,0.027,16.299,0,24.459c-0.033,7.593,1.392,11.006,2.876,12.972c3.212,4.266,8.608,4.838,14.605,4.838
		c3.428,0,6.82,0,10.245,0c3.396,0,6.821,0,10.246,0c1.82,0,3.787-0.39,4.939-1.511c1.455-1.391,1.548-3.477,1.574-4.568
		c0.306-10.097,0.52-20.225,0.426-30.324c-0.09-10.128-0.485-20.228-0.968-30.357c2.393,0,4.819,0,7.212,0
		c0.573,10.252,1.032,20.529,1.119,30.81C306.007,54.312,305.764,64.563,305.398,74.84z"/>
	<g>
		<path fill="#FFFFFF" d="M62.925,126.32l0.083-1.71h-0.083l-1.133,1.765l-6.22,8.109h-1.272v-13.791h2.212v8.413l-0.083,1.627h0.11l1.078-1.71
			l6.221-8.33h1.299v13.791h-2.212V126.32z"/>
		<path fill="#FFFFFF" d="M77.851,128.388h-6.248v6.096h-2.212v-13.791h2.212v5.765h6.248v-5.765h2.212v13.791h-2.212V128.388z"/>
		<path fill="#FFFFFF" d="M93.137,122.623h-4.341v11.861h-2.212v-11.861h-4.341v-1.931h10.893V122.623z"/>
		<path fill="#FFFFFF" d="M104.969,133.381c-1.106,0.883-2.875,1.434-4.755,1.434c-4.23,0-6.11-2.841-6.11-7.227c0-4.661,2.212-7.226,6.082-7.226
			c2.516,0,5.253,0.828,5.253,5.434c0,0.607-0.055,1.269-0.166,2.014h-8.875c0.028,3.199,1.189,5.075,4.451,5.075
			c1.244,0,2.654-0.524,3.29-1.103L104.969,133.381z M96.425,126.071h6.857c0-2.786-1.134-3.779-3.069-3.779
			C98.057,122.292,96.674,123.341,96.425,126.071z"/>
		<path fill="#FFFFFF" d="M108.92,120.693h1.52l0.415,1.655h0.11c0.829-1.296,2.239-1.986,3.954-1.986c3.677,0,5.474,2.041,5.474,6.951
			c0,4.634-2.488,7.502-6.359,7.502c-1.355,0-1.99-0.166-2.903-0.552V140h-2.212V120.693z M111.131,125.244v6.868
			c0.663,0.496,1.438,0.772,2.82,0.772c2.516,0,4.147-1.958,4.147-5.599c0-3.034-0.968-4.993-3.594-4.993
			C112.624,122.292,111.574,123.258,111.131,125.244z"/>
		<path fill="#FFFFFF" d="M132.333,128.388h-6.248v6.096h-2.212v-13.791h2.212v5.765h6.248v-5.765h2.212v13.791h-2.212V128.388z"/>
		<path fill="#FFFFFF" d="M148.891,133.381c-1.106,0.883-2.876,1.434-4.755,1.434c-4.23,0-6.11-2.841-6.11-7.227c0-4.661,2.212-7.226,6.082-7.226
			c2.516,0,5.253,0.828,5.253,5.434c0,0.607-0.055,1.269-0.166,2.014h-8.875c0.028,3.199,1.189,5.075,4.451,5.075
			c1.244,0,2.654-0.524,3.29-1.103L148.891,133.381z M140.348,126.071h6.857c0-2.786-1.134-3.779-3.069-3.779
			C141.979,122.292,140.597,123.341,140.348,126.071z"/>
		<path fill="#FFFFFF" d="M161.662,122.623h-4.341v11.861h-2.212v-11.861h-4.341v-1.931h10.893V122.623z"/>
		<path fill="#FFFFFF" d="M161.854,125.52h6.69v2.041h-6.69V125.52z"/>
		<path fill="#FFFFFF" d="M183.72,126.292l0.166-2.62h-0.137l-0.996,2.124l-3.345,5.406h-0.775l-3.484-5.406l-0.912-2.124h-0.11l0.221,2.592v8.22
			h-2.046v-13.791h2.185l3.87,6.178l0.802,1.6h0.055l0.83-1.655l3.621-6.123h2.211v13.791h-2.156V126.292z"/>
		<path fill="#FFFFFF" d="M189.91,121.713c1.383-0.828,3.345-1.241,5.363-1.241c3.843,0,4.396,2.289,4.396,4.248c0,2.207-0.166,4.331-0.166,6.206
			c0,1.352,0.082,2.593,0.387,3.613h-1.631l-0.581-1.931h-0.139c-0.663,0.993-1.962,2.096-4.312,2.096
			c-2.35,0-4.148-1.517-4.148-3.916c0-3.227,2.792-4.22,6.83-4.22c0.497,0,0.994,0,1.52,0.055c0.055-0.552,0.084-1.048,0.084-1.489
			c0-2.041-0.665-2.731-2.821-2.731c-1.217,0-3.068,0.358-4.091,0.938L189.91,121.713z M197.43,130.595v-2.289
			c-0.526-0.028-1.051-0.055-1.575-0.055c-2.295,0-4.48,0.469-4.48,2.317c0,1.296,1.023,2.207,2.461,2.207
			C195.936,132.774,197.043,131.56,197.43,130.595z"/>
		<path fill="#FFFFFF" d="M211.914,122.623h-5.862v11.861h-2.211v-13.791h8.074V122.623z"/>
		<path fill="#FFFFFF" d="M213.819,121.713c1.383-0.828,3.345-1.241,5.363-1.241c3.843,0,4.396,2.289,4.396,4.248c0,2.207-0.166,4.331-0.166,6.206
			c0,1.352,0.082,2.593,0.387,3.613h-1.63l-0.581-1.931h-0.139c-0.663,0.993-1.962,2.096-4.312,2.096s-4.148-1.517-4.148-3.916
			c0-3.227,2.792-4.22,6.83-4.22c0.497,0,0.994,0,1.52,0.055c0.055-0.552,0.084-1.048,0.084-1.489c0-2.041-0.665-2.731-2.821-2.731
			c-1.217,0-3.068,0.358-4.091,0.938L213.819,121.713z M221.339,130.595v-2.289c-0.526-0.028-1.051-0.055-1.575-0.055
			c-2.295,0-4.48,0.469-4.48,2.317c0,1.296,1.023,2.207,2.461,2.207C219.846,132.774,220.952,131.56,221.339,130.595z"/>
		<path fill="#FFFFFF" d="M229.078,128.333v-1.793h1.935c1.327,0,2.708-0.965,2.708-2.151c0-1.434-1.023-1.958-2.985-1.958
			c-1.438,0-2.71,0.552-3.373,0.965l-0.636-1.71c1.105-0.634,2.571-1.186,4.617-1.186c3.013,0,4.59,1.159,4.59,3.393
			c0,1.269-0.886,2.703-2.406,3.199v0.111c2.156,0.413,2.929,1.572,2.929,3.42c0,2.317-1.907,4.11-5.777,4.11
			c-1.88,0-3.015-0.386-4.009-0.855l0.636-1.821c0.857,0.469,2.101,0.745,3.484,0.745c2.238,0,3.455-0.772,3.455-2.344
			c0-1.324-1.023-2.124-3.566-2.124H229.078z"/>
		<path fill="#FFFFFF" d="M248.566,126.32l0.082-1.71h-0.082l-1.133,1.765l-6.221,8.109h-1.272v-13.791h2.211v8.413l-0.082,1.627h0.11l1.078-1.71
			l6.22-8.33h1.299v13.791h-2.211V126.32z"/>
		<path fill="#FFFFFF" d="M263.493,128.388h-6.249v6.096h-2.211v-13.791h2.211v5.765h6.249v-5.765h2.211v13.791h-2.211V128.388z"/>
	</g>
</g>
</svg>
