<?xml version="1.0" encoding="UTF-8" standalone="no"?>
<svg width="295px" height="45px" viewBox="0 0 295 45" version="1.1" xmlns="http://www.w3.org/2000/svg" xmlns:xlink="http://www.w3.org/1999/xlink">
    <!-- Generator: sketchtool 39.1 (31720) - http://www.bohemiancoding.com/sketch -->
    <title>F51A2B89-75B2-4E90-B387-AA4C31320329</title>
    <desc>Created with sketchtool.</desc>
    <defs></defs>
    <g id="Page-1" stroke="none" stroke-width="1" fill="none" fill-rule="evenodd">
        <g id="promo_96" transform="translate(-490.000000, -3186.000000)">
            <g id="FOOTER" transform="translate(490.000000, 3186.000000)">
                <g id="logo_small_foo">
                    <g id="Layer_1">
                        <path d="M166.572508,12.87 L183.149547,12.87 L183.149547,16.56 L181.990937,16.56 C181.990937,16.56 181.812689,14.67 179.851964,14.67 L177,14.67 L177,31.86 L172.900302,31.86 L172.900302,14.67 L169.870091,14.67 C168.265861,14.67 167.909366,16.02 167.820242,16.56 L166.661631,16.56 L166.661631,12.87 L166.572508,12.87 Z" id="Shape" fill="#535353"></path>
                        <path d="M201.152568,12.87 L204.182779,12.87 L204.182779,31.86 L200.172205,31.86 L200.172205,18.54 L190.279456,31.86 L187.249245,31.86 L187.249245,16.38 C187.249245,14.13 185.377644,13.86 185.377644,13.86 L185.377644,12.87 L191.259819,12.87 L191.259819,26.28 L201.152568,12.87 L201.152568,12.87 Z" id="Shape" fill="#535353"></path>
                        <path d="M114.613293,31.86 L109.444109,31.86 L105.79003,24.84 C105.79003,24.84 104.720544,22.77 103.47281,22.77 L101.957704,22.77 L101.957704,31.95 L97.858006,31.95 L97.858006,16.38 C97.858006,14.13 95.897281,13.95 95.897281,13.95 L95.897281,12.87 L101.957704,12.87 L101.957704,20.79 L103.740181,20.79 C103.740181,20.79 104.898792,20.7 105.968278,19.08 C109.176737,13.86 108.731118,12.87 110.1571,12.87 L114.167674,12.87 L114.167674,14.22 C111.404834,14.22 110.602719,19.98 107.929003,21.78 C109.265861,22.32 109.71148,23.49 112.652568,28.8 C112.652568,28.8 113.365559,30.6 114.702417,30.6 L114.702417,31.86 L114.613293,31.86 Z" id="Shape" fill="#535353"></path>
                        <path d="M212.738671,20.43 L222.542296,20.43 L222.542296,19.44 C222.542296,16.74 220.314199,14.49 217.640483,14.49 C214.966767,14.49 212.738671,16.74 212.738671,19.44 L212.738671,20.43 L212.738671,20.43 Z M226.018127,27.72 C224.146526,30.33 221.294562,32.13 217.640483,32.13 C212.649547,32.13 207.836858,28.17 207.836858,23.04 L207.836858,21.96 C207.836858,16.38 212.203927,12.51 217.640483,12.51 C222.987915,12.51 227.176737,16.92 227.176737,22.32 L212.738671,22.32 L212.738671,25.47 C212.738671,28.17 214.966767,30.42 218.086103,30.42 C220.848943,30.42 222.809668,29.25 224.23565,27.63 L226.018127,27.72 L226.018127,27.72 Z" id="Shape" fill="#535353"></path>
                        <path d="M128.783988,12.51 C126.466767,12.51 124.327795,13.5 123.258308,14.94 L123.258308,12.87 L117.287009,12.87 L117.287009,13.95 C117.287009,13.95 119.15861,14.22 119.15861,16.38 L119.15861,40.5 L123.258308,40.5 L123.258308,29.88 C125.129909,32.13 127.625378,32.22 128.427492,32.22 C133.685801,32.13 137.339879,27.99 137.339879,22.86 L137.339879,21.6 C137.339879,16.02 133.953172,12.51 128.783988,12.51 L128.783988,12.51 Z M132.52719,25.29 C132.52719,27.72 130.833837,30.06 128.249245,30.15 L127.892749,30.15 C125.575529,30.15 123.614804,28.44 123.347432,26.64 L123.347432,18.45 C123.52568,16.56 125.397281,14.4 127.892749,14.4 L128.694864,14.4 C128.694864,14.4 132.52719,14.58 132.616314,19.26 L132.616314,25.29 L132.52719,25.29 Z" id="Shape" fill="#535353"></path>
                        <path d="M66.5755287,12.51 C59.5347432,12.51 56.5936556,18.09 56.5936556,21.69 L56.5936556,23.31 C56.5936556,27.54 60.6933535,32.13 66.5755287,32.13 C72.1012085,32.13 76.6465257,27.99 76.6465257,23.13 L76.6465257,21.78 C76.6465257,17.1 72.9033233,12.51 66.5755287,12.51 L66.5755287,12.51 Z M71.8338369,25.2 C71.8338369,27.9 69.7839879,30.33 66.6646526,30.33 C63.5453172,30.33 61.4954683,27.9 61.4954683,25.2 L61.4954683,19.17 C61.4954683,16.47 63.8126888,14.31 66.5755287,14.31 C69.694864,14.31 71.744713,16.56 71.744713,19.26 L71.744713,25.2 L71.8338369,25.2 Z" id="Shape" fill="#535353"></path>
                        <path d="M163.809668,12.87 L157.838369,12.87 L157.838369,13.95 C157.838369,13.95 159.799094,14.22 159.799094,16.47 L159.799094,31.86 L163.809668,31.86 L163.809668,12.87 L163.809668,12.87 Z" id="Shape" fill="#535353"></path>
                        <path d="M146.252266,20.07 L146.252266,12.78 L140.280967,12.78 L140.280967,13.86 C140.280967,13.86 142.063444,14.04 142.063444,16.29 L142.063444,31.77 L151.332326,31.77 C154.897281,31.77 157.481873,29.52 157.481873,26.46 L157.481873,25.56 C157.481873,22.14 154.986405,19.98 151.064955,19.98 L146.252266,19.98 L146.252266,20.07 Z M146.252266,29.97 L146.252266,22.05 L149.728097,22.05 C151.599698,22.05 153.114804,23.58 153.114804,25.74 L153.114804,26.55 C153.114804,28.35 151.42145,29.97 149.638973,29.97 L146.252266,29.97 L146.252266,29.97 Z" id="Shape" fill="#535353"></path>
                        <path d="M77.3595166,12.87 L93.9365559,12.87 L93.9365559,16.56 L92.6888218,16.56 C92.6888218,16.56 92.510574,14.67 90.5498489,14.67 L87.6978852,14.67 L87.6978852,31.86 L83.5981873,31.86 L83.5981873,14.67 L80.5679758,14.67 C78.9637462,14.67 78.6072508,16.02 78.5181269,16.56 L77.3595166,16.56 L77.3595166,12.87 L77.3595166,12.87 Z" id="Shape" fill="#535353"></path>
                        <path d="M22.102719,0.18 C9.98187311,0.18 0.0891238671,10.08 0.0891238671,22.41 C0.0891238671,34.65 9.89274924,44.64 22.102719,44.64 C34.223565,44.64 44.1163142,34.74 44.1163142,22.41 C44.1163142,10.08 34.223565,0.18 22.102719,0.18 L22.102719,0.18 Z M17.4682779,33.21 C17.6465257,33.3 18.2703927,33.66 18.3595166,34.47 C18.4486405,35.01 18.3595166,35.55 18.092145,36 C17.7356495,36.54 17.2009063,36.81 16.4879154,36.81 C16.1314199,36.81 15.7749245,36.72 15.418429,36.54 L14.3489426,36.09 C9.89274924,33.66 7.0407855,28.8 7.0407855,23.4 L7.0407855,21.15 C7.0407855,15.75 9.80362538,10.89 14.3489426,8.46 L15.3293051,8.01 C15.6858006,7.83 16.0422961,7.74 16.3987915,7.74 C17.1117825,7.74 17.6465257,8.01 18.0030211,8.55 C18.2703927,9 18.3595166,9.45 18.2703927,10.08 C18.092145,10.98 17.2900302,11.34 17.2900302,11.34 C14.7054381,12.51 13.0120846,15.3 13.0120846,18.27 L13.0120846,26.19 C13.1012085,29.34 14.7945619,32.04 17.4682779,33.21 L17.4682779,33.21 Z M36.9864048,23.49 C36.9864048,28.89 34.223565,33.75 29.6782477,36.18 L28.6087613,36.63 C28.2522659,36.81 27.8957704,36.9 27.5392749,36.9 C26.826284,36.9 26.2915408,36.63 25.9350453,36.09 C25.6676737,35.64 25.5785498,35.19 25.6676737,34.56 C25.8459215,33.75 26.3806647,33.39 26.5589124,33.3 C29.2326284,32.13 30.9259819,29.34 30.9259819,26.37 L30.9259819,18.45 C30.9259819,15.39 29.2326284,12.69 26.6480363,11.52 C26.6480363,11.52 25.8459215,11.16 25.6676737,10.26 C25.5785498,9.72 25.6676737,9.18 25.9350453,8.73 C26.2915408,8.19 26.826284,7.92 27.5392749,7.92 C27.8957704,7.92 28.2522659,8.01 28.6087613,8.19 L29.5891239,8.64 C34.1344411,11.07 36.897281,15.93 36.897281,21.33 L36.897281,23.49 L36.9864048,23.49 Z" id="Shape" fill="#09B9E2"></path>
                        <path d="M256.765861,22.59 L255.429003,22.59 L255.429003,26.55 L256.676737,26.55 C258.191843,26.55 259.083082,25.92 259.083082,24.48 C259.083082,23.22 258.280967,22.59 256.765861,22.59 M256.587613,27.9 L253.913897,27.9 L253.913897,16.65 L259.617825,16.65 L259.885196,18.09 L255.429003,18.09 L255.429003,21.24 L256.854985,21.24 C259.172205,21.24 260.598187,22.41 260.598187,24.48 C260.598187,26.73 258.993958,27.9 256.587613,27.9" id="Shape" fill="#535353"></path>
                        <path d="M265.5,23.13 L269.064955,23.13 L267.282477,18.36 L265.5,23.13 L265.5,23.13 Z M266.569486,16.65 L268.084592,16.65 L272.362538,27.72 L270.847432,28.08 L269.510574,24.57 L264.965257,24.57 L263.806647,27.9 L262.202417,27.9 L266.569486,16.65 L266.569486,16.65 Z" id="Shape" fill="#535353"></path>
                        <polygon id="Shape" fill="#535353" points="281.898792 27.9 281.898792 22.68 276.283988 22.68 276.283988 27.9 274.768882 27.9 274.768882 16.65 276.283988 16.65 276.283988 21.33 281.898792 21.33 281.898792 16.65 283.413897 16.65 283.413897 27.9"></polygon>
                        <polygon id="Shape" fill="#535353" points="292.682779 16.65 288.137462 21.69 288.137462 16.65 286.622356 16.65 286.622356 27.9 288.137462 27.9 288.137462 22.23 293.217523 27.99 294.910876 27.63 289.741692 21.96 294.643505 16.65"></polygon>
                        <polygon id="Rectangle-path" fill="#535353" points="239 0 240 0 240 44 239 44"></polygon>
                    </g>
                </g>
            </g>
        </g>
    </g>
</svg>