<?xml version="1.0" encoding="UTF-8" standalone="no"?>
<svg width="308px" height="47px" viewBox="0 0 308 47" version="1.1" xmlns="http://www.w3.org/2000/svg" xmlns:xlink="http://www.w3.org/1999/xlink">
    <!-- Generator: sketchtool 39.1 (31720) - http://www.bohemiancoding.com/sketch -->
    <title>7321451B-848D-4BC4-A785-2538AEF59E35</title>
    <desc>Created with sketchtool.</desc>
    <defs></defs>
    <g id="Page-1" stroke="none" stroke-width="1" fill="none" fill-rule="evenodd">
        <g id="promo_96" transform="translate(-1222.000000, -35.000000)">
            <g id="SECTION#1">
                <g id="openbank_logo" transform="translate(1222.000000, 35.000000)">
                    <g id="Layer_1">
                        <path d="M218,13 L218,34 L214,34 L214,20 L203,34 L200,34 L199.936458,17 C199.936458,14.39775 197.937969,14.10975 198,14.1800003 L198,13 L204,13 L204,28 L215,13 L218,13 Z" id="Shape" fill="#FFFFFF"></path>
                        <path d="M124,34 L118.465257,34 L114.563444,26.3980011 C114.563444,26.3980011 113.42145,24.1900011 112,24 L110,24 L110,34 L106,34 L106,17 C106.093655,14.367112 104,14.175112 104,14.175112 L104,13 L110,13 L110,21.5 L112,21.5 C113.843828,21.1794529 114.163664,20.5065443 114.746917,19.624 C118.172899,14.056 117.697068,13 119.219726,13 L123,13 L123,14.5 C120.090925,14.4263281 119.702417,21.2140011 117,23 C118.274924,23.7100011 118.750755,24.9580011 121.891239,30.6220011 C121.891239,30.6220011 122.652568,32.5420011 124,32.5 L124,34 Z" id="Shape" fill="#FFFFFF"></path>
                        <path d="M227,20.9751762 L237.999166,20.9751762 L237.999166,19.8126469 C237.999166,16.3426353 235.535673,14.0063103 232.499583,14 C229.62429,14.0063103 227.161631,16.3426353 227,19.8622197 L227,21.1527339 L227,20.9751762 Z M233,34 C227.066465,34.272 221.927492,29.831633 222,24.0793394 L222,22.8683303 C221.927492,16.6114495 226.590634,12.0307617 233,12 C238.10574,12.0307617 242.5,17 242,23 L227,23 L227,27 C227.161631,29.831633 229.578049,31.9999993 233,32 C236.063281,32.0000006 237.455232,30.8279985 238.999999,29 L241.248594,29.5 C239.250104,32.2718401 236.297583,34.272 233,34 Z" id="Shape" fill="#FFFFFF"></path>
                        <path d="M132,15.2319987 L132,12.9999993 L126,13 L126,14.1759994 C126.039993,14.1759994 128.038483,14.4639994 128,17 L128,43 L132,42.9999993 L132,31.1679987 C134.028763,33.5679987 136.731129,33.9889024 137.587625,34 C143.202428,33.8929024 147.066527,29.1519987 147.066527,23.6799987 L147.066527,22.3359987 C147.066527,16.3839987 143.450213,12.6399987 137.930576,12.6399987 C135.456255,12.6399987 133.172267,13.6959987 132,15.2319987 Z M142,26.4025881 C142,28.9945881 140.270977,31.3599994 137.763893,31.4559994 L137.418088,31.4559994 C135.170358,31.4559994 133.268433,29.6319994 133,27.7119994 L133,18.9759994 C133.181982,16.9599994 134.997456,14.6559994 137.418088,14.6559994 L138.196149,14.6559994 C138.196149,14.6559994 141.913549,14.8479994 142,19.8399994 L142,26.4025881 Z" id="Shape" fill="#FFFFFF"></path>
                        <path d="M60,22 L60,24 C60,28.853211 64.2933333,34 70.4533333,34 C76.24,34 81,29.3577982 81,24 L81,22 C81,17.146789 77.08,12 70.4533333,12 C63.08,12 60,18.2568807 60,22 Z M76,26 C76,29.2033173 73.8189655,31.9047619 70.5,32 C67.1810345,31.9047619 65,29.2033173 65,26 L65,19 C65,16.4965222 67.4655172,14.0952381 70.5,14 C73.7241379,14.0952381 75.9051724,16.5965757 76,19 L76,26 Z" id="Shape" fill="#FFFFFF"></path>
                        <path d="M175,13 L169.000488,13 L169.000488,14.1800003 C169.000488,14.1822734 171.094144,14.4702734 171,17 L171,34 L175,34 L175,13.728 L175,13 Z" id="Shape" fill="#FFFFFF"></path>
                        <path d="M156,13 L150,13 L150,14.1834941 C150.089996,14.1834941 151.993319,14.3754941 152,16.7754941 L152,34 L161.890601,34 C165.697247,33.888 168.457066,31.488 168.457066,28.224 L168.457066,27.264 C168.457066,23.616 165.834345,21.0145264 161.647033,21 L156,21 L156,13 Z M156,23 L159.958912,23 C162.090634,23 164,24.1365684 164,27.5 C164,30.8634316 161.887613,31.9660377 159.857402,32 L156,32 L156,23 Z" id="Shape" fill="#FFFFFF"></path>
                        <path d="M101,13 L101,17 L99.6926981,17 C99.6926981,16.9931728 99.5023658,14.9771728 97.4087102,15 L94,15 L94,34 L90,34 L90,15 L86.4259819,15 C84.7129909,14.9771728 84.3323263,16.4171728 84.2371601,17 L83,17 L83,13 L101,13 Z" id="Shape" fill="#FFFFFF"></path>
                        <path d="M196,13 L196,17 L194.692698,17 C194.692698,16.9931728 194.502366,14.9771728 192.40871,15 L189,15 L189,34 L185,34 L185,15 L181.425982,15 C179.712991,14.9771728 179.332326,16.4171728 179.23716,17 L178,17 L178,13 L196,13 Z" id="Shape-Copy" fill="#FFFFFF"></path>
                        <path d="M23.5,0 C10.5607287,0 3.55271368e-15,10.465587 3.55271368e-15,23.5 C3.55271368e-15,36.4392713 10.465587,47 23.5,47 C36.4392713,47 47,36.534413 47,23.5 C47,10.465587 36.4392713,0 23.5,0 L23.5,0 Z M18.9082639,36.512 C19.0881471,37.088 18.9937084,37.664 18.7103925,38.144 C18.3326379,38.72 17.766006,39.008 16.9235533,39 C16.6327422,39.008 16.2549876,38.912 15.877233,38.72 L14.7439692,38.24 C10.0220368,35.648 7,30.464 7,24 L7,22 C7,16.544 9.92759812,11.36 14.7439692,8.768 L15.7827943,8.288 C16.1605489,8.096 16.5383035,8 16.9235533,8 C17.6715673,8 18.2381992,8.288 18.6159538,8.864 C18.8992698,9.344 18.9937084,9.824 18.9082639,10.496 C18.7103925,11.456 17.8604446,11.84 17.9159086,11.84 C15.1217238,13.088 13.3273895,16.064 13,19.232 L13,27.68 C13.4218281,31.04 15.2161625,33.92 17.9159086,35 C18.2381992,35.264 18.8992698,35.648 18.9082639,36.512 Z M39.9963757,24.546972 C40.1179576,30.431677 37.1728481,35.6304348 32.327668,38.2298137 L31.1876256,38.7111801 C30.8076115,38.9037267 30.4275974,39 30.0475832,39 C29.287555,39 28.7175338,38.7111801 28.3375197,38.0854037 C28.0525091,37.6521739 27.9575055,37.1708075 28.0168827,36.5811335 C28.2425161,35.6304348 28.8125373,35.2453416 29.0151738,35.0768634 C31.8526503,33.8975155 33.6577174,30.9130435 34,27.7360248 L34,19.2639752 C33.6577174,15.9906832 31.8526503,13.1024845 29.0151738,11.8509317 C29.0975479,11.8509317 28.2425161,11.4658385 28.0168827,10.5031056 C27.9575055,9.92546584 28.0525091,9.34782609 28.3375197,8.86645963 C28.7175338,8.28881988 29.287555,8 30.0134649,8 C30.4275974,8 30.8076115,8.09627329 31.1876256,8.28881988 L32.2326645,8.77018634 C37.0778446,11.3695652 40.0229541,16.568323 39.9963757,22.0398551 L39.9963757,24.546972 Z" id="Shape" fill="#09B9E2"></path>
                        <polygon id="Rectangle-path" fill="#FFFFFF" points="256 0 257 0 257 47 256 47"></polygon>
                        <path d="M272.5,28.9965814 L270,28.9965814 L270,18.7000008 L275.390501,18.7000008 L275.604676,20 L271.419017,20 L271.419017,22.878033 L272.761354,22.878033 C274.969203,22.878033 276.297438,23.9397427 276.297438,25.8506459 C276.297438,27.954904 274.788521,28.9965814 272.524263,28.9965814 M271.419017,24.1182911 L271.419017,27.7598072 L272.595655,27.7598072 C274.01379,27.7598072 274.861675,27.1780008 274.861675,25.8941943 C274.861675,24.715775 274.107216,24.1182911 272.686437,24.1182911 L271.419017,24.1182911 Z" id="Fill-15" fill="#FFFFFF"></path>
                        <path d="M282.847123,18.6599998 L286.863558,28.8102579 L285.462168,29 L284.236173,25.9134192 L279.993225,25.9134192 L278.834214,29.0027418 L277.349976,29.0027418 L281.426344,18.6599998 L282.847123,18.6599998 Z M280.445371,24.675774 L283.768162,24.675774 L282.106767,20.3009031 L280.445371,24.675774 L280.445371,24.675774 Z" id="Fill-16" fill="#FFFFFF"></path>
                        <polygon id="Fill-17" fill="#FFFFFF" points="295.691413 24.2498072 290.42078 24.2498072 290.42078 28.9957104 289 28.9957104 289 18.7000008 290.42078 18.7000008 290.42078 22.9677427 295.691413 22.9677427 295.691413 18.7000008 297.108667 18.7000008 297.108667 28.9957104 295.691413 28.9957104"></polygon>
                        <polygon id="Fill-18" fill="#FFFFFF" points="301.424305 23.3257104 301.424305 18.7000008 300 18.7000008 300 28.9965814 301.424305 28.9965814 301.424305 23.7751298 306.23999 29 307.812525 28.7727427 302.964952 23.5356137 307.5534 18.7000008 305.745696 18.7000008"></polygon>
                    </g>
                </g>
            </g>
        </g>
    </g>
</svg>